<svg width="18" height="18" viewBox="0 0 18 18" fill="none" xmlns="http://www.w3.org/2000/svg">
<path d="M15.7002 4.68471L10.9002 1.32637C9.59188 0.409706 7.58354 0.459706 6.32524 1.43471L2.15024 4.69304C1.3169 5.34304 0.658569 6.67637 0.658569 7.72633V13.4763C0.658569 15.6013 2.38357 17.3347 4.50857 17.3347H13.4919C15.6169 17.3347 17.3419 15.6097 17.3419 13.4847V7.83466C17.3419 6.70971 16.6169 5.32637 15.7002 4.68471ZM9.62521 14.0013C9.62521 14.343 9.34188 14.6263 9.00021 14.6263C8.65854 14.6263 8.37521 14.343 8.37521 14.0013V11.5013C8.37521 11.1597 8.65854 10.8763 9.00021 10.8763C9.34188 10.8763 9.62521 11.1597 9.62521 11.5013V14.0013Z" fill="#1B212D"/>
</svg>
